<?xml version="1.0" encoding="UTF-8"?>
<svg width="16px" height="16px" viewBox="0 0 16 16" version="1.1" xmlns="http://www.w3.org/2000/svg" xmlns:xlink="http://www.w3.org/1999/xlink">
    <!-- Generator: Sketch 61.2 (89653) - https://sketch.com -->
    <title>显示</title>
    <desc>Created with Sketch.</desc>
    <g id="社区人口管理迭代" stroke="none" stroke-width="1" fill="none" fill-rule="evenodd">
        <g id="居民管理-实有人口-添加" transform="translate(-467.000000, -232.000000)" fill="#B4B9BF" fill-rule="nonzero">
            <g id="显示" transform="translate(467.000000, 232.000000)">
                <path d="M12.9521606,8.30577488 C12.5907329,7.59221757 12.1192673,6.95215566 11.5603846,6.43153762 L11.5603846,6.43153762 C11.3868134,6.26451082 11.111498,6.27064569 10.9454498,6.44524105 C10.7794026,6.6198362 10.7855015,6.89677592 10.9590729,7.06380374 C10.9624351,7.06703921 10.9658487,7.0702202 10.9693124,7.07334548 C11.4507811,7.52177959 11.8609215,8.07871364 12.1771126,8.70301848 L12.1771126,8.70301844 C12.2865379,8.9181142 12.5485913,9.00325283 12.7624255,8.89318199 C12.9757398,8.78337878 13.0605779,8.52070625 12.9521537,8.30575713 L12.9521606,8.30577488 Z M8.51064445,6.59953648 L8.47585,6.59078654 C8.44540479,6.5829116 8.44540479,6.5829116 8.41452472,6.57591161 L8.41452479,6.57591163 C7.35833545,6.34460763 6.3157241,7.01835647 6.08577468,8.08077493 C5.8558273,9.14319544 6.52562456,10.1919578 7.58181187,10.4232639 C8.63800122,10.6545679 9.68061256,9.98081904 9.91056198,8.91840058 C9.96109948,8.68490432 9.96895423,8.44410425 9.93374214,8.20777792 L9.93374215,8.20777796 C9.89567929,7.9692081 9.67255822,7.8068468 9.43538759,7.8451336 C9.2019244,7.8828224 9.04116368,8.10122112 9.07344916,8.3368389 L9.07344913,8.33683874 C9.16277864,8.93417497 8.75379722,9.49125668 8.15996441,9.58111105 C7.5661316,9.67096757 7.01231721,9.25957329 6.92298984,8.66223707 C6.83366033,8.06490085 7.24264176,7.50781914 7.83647456,7.41796477 C7.97912312,7.39637972 8.12461674,7.40356254 8.26447835,7.43909495 L8.28318042,7.44434492 L8.28318041,7.44434491 C8.51373431,7.51215128 8.75528008,7.37911605 8.82268896,7.14720206 C8.89009764,6.91528796 8.75784268,6.67231715 8.52728887,6.60451058 C8.52177296,6.60288835 8.51622565,6.60137622 8.51065011,6.59997513 L8.51064445,6.59953648 Z M9.78281786,5.32379515 L9.78281787,5.32379516 C9.76324719,5.31306411 9.7428913,5.30384991 9.72192755,5.29623285 L9.72192739,5.29623279 C9.16846672,5.09843526 8.58520783,4.99823579 7.99785719,5.00002351 C6.20507129,5.00002351 4.54667909,5.99316555 3.51241638,7.4894023 L3.51241644,7.48940222 C3.33114702,7.75055615 3.17253819,8.02690525 3.03834122,8.31539694 L3.03834123,8.31539692 C2.94240977,8.53691466 3.04316388,8.79471559 3.26338239,8.89121342 C3.47603718,8.9843969 3.7239693,8.89331532 3.82687162,8.68420692 C3.93560473,8.45014567 4.06956316,8.21608544 4.22700787,7.98858665 C5.10687378,6.71591122 6.50909124,5.8750351 7.99786032,5.8750351 C8.28621962,5.8750351 8.5663149,5.90259741 8.83771189,5.95640955 L8.12224993,6.67609249 L8.12224989,6.67609253 C7.95531995,6.84741671 7.95667775,7.12200522 8.12529448,7.29165084 L8.12529445,7.29165082 C8.29266782,7.46259458 8.56611579,7.46468841 8.73605695,7.2963276 C8.73659864,7.29579095 8.73713891,7.29525287 8.73767778,7.29471334 L9.97331697,6.05178429 L9.97331698,6.05178428 C10.1420013,5.87976592 10.1401165,5.60276467 9.96910696,5.43308419 C9.91711686,5.38149847 9.8530507,5.34391119 9.78281714,5.32378854 L9.78281786,5.32379515 Z M12.1771134,8.29702836 C11.2972475,10.033895 9.79369453,11.1250057 7.99786071,11.1250057 C6.50952996,11.1250057 5.10730537,10.2850114 4.22700826,9.0110235 C4.06956355,8.78396254 3.9356041,8.54990129 3.82687201,8.31540323 L3.82687201,8.31540324 C3.72263432,8.09771634 3.46269811,8.00624597 3.24628795,8.11109862 C3.03390125,8.21400202 2.94167684,8.46837305 3.03834163,8.68465107 L3.03834142,8.68465062 C3.17253838,8.97314128 3.33114722,9.24949038 3.51241663,9.51064534 C4.54667934,11.0068852 6.20507154,12 7.99785745,12 C10.1494615,12 11.9339803,10.7050122 12.9521574,8.6942759 L12.9521574,8.69427587 C13.0615826,8.47918011 12.9769428,8.21558064 12.7631091,8.1055098 C12.5492749,7.99543897 12.2872215,8.08057811 12.1777962,8.29567335 C12.177569,8.29612003 12.1773425,8.2965671 12.1771168,8.29701456 L12.1771134,8.29702836 Z" id="形状"></path>
            </g>
        </g>
    </g>
</svg>