<?xml version="1.0" encoding="UTF-8"?>
<svg width="16px" height="16px" viewBox="0 0 16 16" version="1.1" xmlns="http://www.w3.org/2000/svg" xmlns:xlink="http://www.w3.org/1999/xlink">
    <!-- Generator: Sketch 61.2 (89653) - https://sketch.com -->
    <title>隐藏</title>
    <desc>Created with Sketch.</desc>
    <g id="社区人口管理迭代" stroke="none" stroke-width="1" fill="none" fill-rule="evenodd">
        <g id="居民管理-实有人口-添加" transform="translate(-1626.000000, -232.000000)" fill="#B4B9BF" fill-rule="nonzero">
            <g id="隐藏" transform="translate(1626.000000, 232.000000)">
                <path d="M10.4084937,7.76039138 L11.1329128,8.76178248 C11.2553481,8.93102267 11.210752,9.16288977 11.0333041,9.27966763 C10.8558648,9.3964373 10.6127732,9.35390183 10.4903378,9.18466164 L9.66325904,8.04135175 C9.26041533,8.15983464 8.83239872,8.23583944 8.39034751,8.26412811 L8.39034751,9.62769781 C8.39034751,9.83331734 8.21558107,10 8,10 C7.78441893,10 7.60965249,9.83331734 7.60965249,9.62769781 L7.60965249,8.26412811 C7.16760128,8.23583944 6.73958467,8.15983464 6.33674096,8.04135175 L5.50966216,9.18466164 C5.38722682,9.35390183 5.14413518,9.3964373 4.9666959,9.27966763 C4.78924803,9.16288977 4.74465186,8.93102267 4.8670872,8.76178248 L5.5915063,7.76039138 C4.97891709,7.47375034 4.45705,7.07737285 4.07815019,6.59579326 C3.94876201,6.43132386 3.98364655,6.19795667 4.15607531,6.07453904 C4.32851267,5.95112961 4.57318567,5.9844022 4.70258244,6.14886341 C5.36532838,6.99123626 6.61295529,7.53195893 8,7.53195893 C9.38704471,7.53195893 10.6346716,6.99123626 11.2974176,6.14886341 C11.4268143,5.9844022 11.6714873,5.95112961 11.8439247,6.07453904 C12.0163535,6.19795667 12.051238,6.43132386 11.9218498,6.59579326 C11.54295,7.07738105 11.0210829,7.47375034 10.4084937,7.76039138 Z" id="Path"></path>
            </g>
        </g>
    </g>
</svg>