<?xml version="1.0" encoding="UTF-8"?>
<svg width="17px" height="17px" viewBox="0 0 17 17" version="1.1" xmlns="http://www.w3.org/2000/svg" xmlns:xlink="http://www.w3.org/1999/xlink">
    <!-- Generator: Sketch 61.2 (89653) - https://sketch.com -->
    <title>Shape 2</title>
    <desc>Created with Sketch.</desc>
    <g id="社区房屋管理（迭代1）-3月" stroke="none" stroke-width="1" fill="none" fill-rule="evenodd">
        <g id="建筑列表" transform="translate(-338.000000, -319.000000)" fill="#999999" fill-rule="nonzero">
            <g id="编组-2" transform="translate(330.000000, 310.500000)">
                <g id="Shape-2" transform="translate(7.500000, 8.500000)">
                    <path d="M8.43219768,0 C12.5370582,0 15.8643964,3.32734433 15.8643964,7.43220485 C15.8643964,9.28073202 15.1897814,10.97145 14.07304,12.2715131 C14.0913346,12.284853 14.1092482,12.3008608 14.1263994,12.3176308 L16.8210538,15.0126604 L16.8210538,15.0126604 C17.0504926,15.2295769 17.0606439,15.5914196 16.8437267,15.8208584 C16.6268101,16.0502971 16.2649674,16.0604485 16.0355286,15.8435312 C16.027826,15.836249 16.0203274,15.8287539 16.0130416,15.8210547 L13.3176368,13.1264003 L13.3176368,13.1264003 C13.3009299,13.1095927 13.2852737,13.0917725 13.2707568,13.0730409 L13.2707566,13.073041 C11.9251195,14.2314278 10.2077617,14.8672381 8.43219871,14.8643974 C4.32733819,14.8643974 1,11.5370592 1,7.43219871 C1,3.32733819 4.32733819,0 8.43219871,0 L8.43219768,0 Z M8.43219768,1.14342132 C4.95887752,1.14342132 2.14341415,3.9588847 2.14341415,7.43220485 C2.14341415,10.905525 4.95887752,13.7209884 8.43219768,13.7209884 C11.9055178,13.7209884 14.7209812,10.905525 14.7209812,7.43220485 C14.7209812,3.9588847 11.9055178,1.14342132 8.43219768,1.14342132 Z" id="Shape"></path>
                </g>
            </g>
        </g>
    </g>
</svg>